<svg xmlns="http://www.w3.org/2000/svg" viewBox="0 0 160 160" role="img" aria-label="Settings">
  <defs>
    <radialGradient id="bg" cx="45%" cy="34%" r="70%">
      <stop offset="0" stop-color="#fff3ba"/>
      <stop offset=".38" stop-color="#d39b42"/>
      <stop offset="1" stop-color="#2d1a0d"/>
    </radialGradient>
    <linearGradient id="gear" x1="28" y1="24" x2="132" y2="136">
      <stop offset="0" stop-color="#fff4bd"/>
      <stop offset=".44" stop-color="#c88b33"/>
      <stop offset="1" stop-color="#58310f"/>
    </linearGradient>
    <filter id="shadow" x="-20%" y="-20%" width="140%" height="140%">
      <feDropShadow dx="0" dy="8" stdDeviation="7" flood-color="#000" flood-opacity=".55"/>
    </filter>
  </defs>
  <circle cx="80" cy="80" r="66" fill="url(#bg)" stroke="#f7d889" stroke-width="5" filter="url(#shadow)"/>
  <circle cx="80" cy="80" r="53" fill="#1d1510" opacity=".88" stroke="#b9863d" stroke-width="3"/>
  <path fill="url(#gear)" stroke="#ffe3a4" stroke-width="4" stroke-linejoin="round" d="M88 34l5 15a35 35 0 0 1 9 4l15-7 12 20-13 10a36 36 0 0 1 0 9l13 10-12 20-15-7a35 35 0 0 1-9 4l-5 15H65l-5-15a35 35 0 0 1-9-4l-15 7-12-20 13-10a36 36 0 0 1 0-9L24 66l12-20 15 7a35 35 0 0 1 9-4l5-15z"/>
  <circle cx="80" cy="80" r="21" fill="#22170d" stroke="#fff0b6" stroke-width="6"/>
  <circle cx="80" cy="80" r="9" fill="#6fe8ff" opacity=".86"/>
</svg>
