<svg xmlns="http://www.w3.org/2000/svg" viewBox="0 0 420 300">
  <ellipse cx="210" cy="274" rx="144" ry="18" fill="#000" opacity=".3"/>
  <path d="M64 175c26-83 115-128 203-81 59 31 85 92 55 137-43 64-178 61-243 16-25-18-27-44-15-72z" fill="#b92531"/>
  <path d="M106 145c52-72 127-81 198-33-63-5-116 25-158 92" fill="#ff5a37" opacity=".9"/>
  <path d="M93 143L35 52l105 53M286 115l76-74-36 113" fill="#ffb64e"/>
  <path d="M129 209c42 31 108 30 152 0" fill="none" stroke="#ffd06c" stroke-width="13" stroke-linecap="round"/>
  <circle cx="159" cy="159" r="9" fill="#fff3bc"/>
  <circle cx="235" cy="159" r="9" fill="#fff3bc"/>
  <path d="M79 233c-25 16-49 21-72 17 28-18 41-40 41-67" fill="#8b1425"/>
</svg>
