<svg xmlns="http://www.w3.org/2000/svg" viewBox="0 0 420 300">
  <ellipse cx="210" cy="274" rx="144" ry="18" fill="#000" opacity=".3"/>
  <path d="M66 186c19-91 113-142 200-94 61 34 80 100 41 144-53 59-180 54-237 8-22-17-13-45-4-58z" fill="#1e7d45"/>
  <path d="M103 150c54-76 131-87 203-38-62 3-115 35-157 98" fill="#55d872" opacity=".88"/>
  <path d="M95 147L37 53l101 51M283 112l79-71-39 109" fill="#b9ff62"/>
  <path d="M120 210c60 29 114 22 162-19" fill="none" stroke="#d3ff91" stroke-width="13" stroke-linecap="round"/>
  <circle cx="159" cy="158" r="9" fill="#e9ffb0"/>
  <circle cx="235" cy="154" r="9" fill="#e9ffb0"/>
  <path d="M75 234c-26 14-49 17-69 12 27-17 40-39 39-66" fill="#135932"/>
</svg>
